<svg width="25" height="25" viewBox="0 0 25 25" fill="none" xmlns="http://www.w3.org/2000/svg">
<circle cx="12.5" cy="12.5" r="12.5" fill="white"/>
<g clip-path="url(#clip0_73_989)">
<path d="M17.2499 8.98804H15.7069C15.608 8.98806 15.5114 9.01739 15.4292 9.07234C15.347 9.12728 15.2829 9.20536 15.2451 9.29671C15.2072 9.38806 15.1973 9.48858 15.2166 9.58555C15.2359 9.68253 15.2835 9.77161 15.3534 9.84154L15.8964 10.3845L14.1034 12.177C14.0082 12.2681 13.8815 12.3189 13.7497 12.3189C13.6179 12.3189 13.4912 12.2681 13.3959 12.177L13.3109 12.0915C13.0252 11.8186 12.6453 11.6662 12.2502 11.6662C11.855 11.6662 11.4751 11.8186 11.1894 12.0915L8.63942 14.6415C8.54547 14.7358 8.49279 14.8634 8.49298 14.9965C8.49317 15.1296 8.54621 15.2571 8.64042 15.351C8.73464 15.445 8.86232 15.4977 8.99538 15.4975C9.12844 15.4973 9.25597 15.4443 9.34992 15.35L11.8999 12.8C11.9951 12.7089 12.1219 12.658 12.2537 12.658C12.3855 12.658 12.5122 12.7089 12.6074 12.8L12.6924 12.8855C12.9782 13.1583 13.3581 13.3104 13.7532 13.3104C14.1482 13.3104 14.5281 13.1583 14.8139 12.8855L16.6069 11.0925L17.1499 11.6355C17.2201 11.7043 17.309 11.7509 17.4054 11.7695C17.5019 11.788 17.6017 11.7778 17.6924 11.7399C17.7831 11.7021 17.8606 11.6384 17.9153 11.5568C17.97 11.4752 17.9994 11.3793 17.9999 11.281V9.73804C17.9999 9.53912 17.9209 9.34836 17.7803 9.20771C17.6396 9.06705 17.4488 8.98804 17.2499 8.98804Z" fill="#4F535A"/>
<path d="M17.5 17.988H8.5C8.10218 17.988 7.72064 17.83 7.43934 17.5487C7.15804 17.2674 7 16.8858 7 16.488V7.5C7 7.36739 6.94732 7.24021 6.85355 7.14645C6.75979 7.05268 6.63261 7 6.5 7C6.36739 7 6.24021 7.05268 6.14645 7.14645C6.05268 7.24021 6 7.36739 6 7.5V16.488C6.00079 17.1508 6.26444 17.7862 6.73311 18.2549C7.20178 18.7236 7.8372 18.9872 8.5 18.988H17.5C17.6326 18.988 17.7598 18.9353 17.8536 18.8416C17.9473 18.7478 18 18.6206 18 18.488C18 18.3554 17.9473 18.2282 17.8536 18.1344C17.7598 18.0407 17.6326 17.988 17.5 17.988Z" fill="#4F535A"/>
</g>
<defs>
<clipPath id="clip0_73_989">
<rect width="12" height="12" fill="white" transform="translate(6 7)"/>
</clipPath>
</defs>
</svg>
