<svg width="25" height="25" viewBox="0 0 25 25" fill="none" xmlns="http://www.w3.org/2000/svg">
<circle cx="12.5" cy="12.5" r="12.5" fill="#006BF9"/>
<g clip-path="url(#clip0_73_1019)">
<path d="M16 7.5H15.5V7C15.5 6.86739 15.4473 6.74021 15.3536 6.64645C15.2598 6.55268 15.1326 6.5 15 6.5C14.8674 6.5 14.7402 6.55268 14.6464 6.64645C14.5527 6.74021 14.5 6.86739 14.5 7V7.5H10.5V7C10.5 6.86739 10.4473 6.74021 10.3536 6.64645C10.2598 6.55268 10.1326 6.5 10 6.5C9.86739 6.5 9.74021 6.55268 9.64645 6.64645C9.55268 6.74021 9.5 6.86739 9.5 7V7.5H9C8.3372 7.50079 7.70178 7.76444 7.23311 8.23311C6.76444 8.70178 6.50079 9.3372 6.5 10L6.5 16C6.50079 16.6628 6.76444 17.2982 7.23311 17.7669C7.70178 18.2356 8.3372 18.4992 9 18.5H16C16.6628 18.4992 17.2982 18.2356 17.7669 17.7669C18.2356 17.2982 18.4992 16.6628 18.5 16V10C18.4992 9.3372 18.2356 8.70178 17.7669 8.23311C17.2982 7.76444 16.6628 7.50079 16 7.5ZM7.5 10C7.5 9.60218 7.65804 9.22064 7.93934 8.93934C8.22064 8.65804 8.60218 8.5 9 8.5H16C16.3978 8.5 16.7794 8.65804 17.0607 8.93934C17.342 9.22064 17.5 9.60218 17.5 10V10.5H7.5V10ZM16 17.5H9C8.60218 17.5 8.22064 17.342 7.93934 17.0607C7.65804 16.7794 7.5 16.3978 7.5 16V11.5H17.5V16C17.5 16.3978 17.342 16.7794 17.0607 17.0607C16.7794 17.342 16.3978 17.5 16 17.5Z" fill="white"/>
<path d="M12.5 14.75C12.9142 14.75 13.25 14.4142 13.25 14C13.25 13.5858 12.9142 13.25 12.5 13.25C12.0858 13.25 11.75 13.5858 11.75 14C11.75 14.4142 12.0858 14.75 12.5 14.75Z" fill="white"/>
<path d="M9.99994 14.75C10.4142 14.75 10.7499 14.4142 10.7499 14C10.7499 13.5858 10.4142 13.25 9.99994 13.25C9.58573 13.25 9.24994 13.5858 9.24994 14C9.24994 14.4142 9.58573 14.75 9.99994 14.75Z" fill="white"/>
<path d="M15.0001 14.75C15.4143 14.75 15.7501 14.4142 15.7501 14C15.7501 13.5858 15.4143 13.25 15.0001 13.25C14.5858 13.25 14.2501 13.5858 14.2501 14C14.2501 14.4142 14.5858 14.75 15.0001 14.75Z" fill="white"/>
</g>
<defs>
<clipPath id="clip0_73_1019">
<rect width="12" height="12" fill="white" transform="translate(6.5 6.5)"/>
</clipPath>
</defs>
</svg>
